# Blender v2.93.0 OBJ File: 'cornel-box.blend'
# www.blender.org
mtllib cornel-box.mtl
o down_Plane
v -1.000000 0.000000 1.000000
v 1.000000 0.000000 1.000000
v -1.000000 0.000000 -1.000000
v 1.000000 0.000000 -1.000000
vt 1.000000 0.000000
vt 0.000000 1.000000
vt 0.000000 0.000000
vt 1.000000 1.000000
vn 0.0000 1.0000 0.0000
usemtl down
s off
f 2/1/1 3/2/1 1/3/1
f 2/1/1 4/4/1 3/2/1
o left_Plane.002
v -1.000000 2.000000 1.000000
v -1.000000 0.000000 1.000000
v -1.000000 2.000000 -1.000000
v -1.000000 0.000000 -1.000000
vt 1.000000 0.000000
vt 0.000000 1.000000
vt 0.000000 0.000000
vt 1.000000 1.000000
vn 1.0000 -0.0000 0.0000
usemtl left
s off
f 6/5/2 7/6/2 5/7/2
f 6/5/2 8/8/2 7/6/2
o right_Plane.003
v 1.000000 0.000000 1.000000
v 1.000000 2.000000 1.000000
v 1.000000 0.000000 -1.000000
v 1.000000 2.000000 -1.000000
vt 1.000000 0.000000
vt 0.000000 1.000000
vt 0.000000 0.000000
vt 1.000000 1.000000
vn -1.0000 0.0000 0.0000
usemtl right
s off
f 10/9/3 11/10/3 9/11/3
f 10/9/3 12/12/3 11/10/3
o back_Plane.004
v -1.000000 0.000000 -1.000000
v 1.000000 0.000000 -1.000000
v -1.000000 2.000000 -1.000000
v 1.000000 2.000000 -1.000000
vt 1.000000 0.000000
vt 0.000000 1.000000
vt 0.000000 0.000000
vt 1.000000 1.000000
vn 0.0000 -0.0000 1.0000
usemtl back
s off
f 14/13/4 15/14/4 13/15/4
f 14/13/4 16/16/4 15/14/4
o Cube1_Cube
v -0.564151 0.000000 -0.042099
v -0.564151 1.200000 -0.042099
v -0.693560 0.000000 -0.525062
v -0.693560 1.200000 -0.525062
v -0.081188 0.000000 -0.171509
v -0.081188 1.200000 -0.171509
v -0.210598 0.000000 -0.654472
v -0.210598 1.200000 -0.654472
vt 0.625000 0.000000
vt 0.375000 0.250000
vt 0.375000 0.000000
vt 0.625000 0.250000
vt 0.375000 0.500000
vt 0.625000 0.500000
vt 0.375000 0.750000
vt 0.625000 0.750000
vt 0.375000 1.000000
vt 0.125000 0.750000
vt 0.125000 0.500000
vt 0.875000 0.500000
vt 0.625000 1.000000
vt 0.875000 0.750000
vn -0.9659 0.0000 0.2588
vn -0.2588 0.0000 -0.9659
vn 0.9659 0.0000 -0.2588
vn 0.2588 0.0000 0.9659
vn 0.0000 -1.0000 0.0000
vn 0.0000 1.0000 0.0000
usemtl cube1
s off
f 18/17/5 19/18/5 17/19/5
f 20/20/6 23/21/6 19/18/6
f 24/22/7 21/23/7 23/21/7
f 22/24/8 17/25/8 21/23/8
f 23/21/9 17/26/9 19/27/9
f 20/28/10 22/24/10 24/22/10
f 18/17/5 20/20/5 19/18/5
f 20/20/6 24/22/6 23/21/6
f 24/22/7 22/24/7 21/23/7
f 22/24/8 18/29/8 17/25/8
f 23/21/9 21/23/9 17/26/9
f 20/28/10 18/30/10 22/24/10
o Cube2_Cube.001
v -0.093286 0.000000 0.536699
v -0.093286 0.700000 0.536699
v 0.087887 0.000000 -0.139449
v 0.087887 0.700000 -0.139449
v 0.582862 0.000000 0.717873
v 0.582862 0.700000 0.717873
v 0.764035 0.000000 0.041725
v 0.764035 0.700000 0.041725
vt 0.625000 0.000000
vt 0.375000 0.250000
vt 0.375000 0.000000
vt 0.625000 0.250000
vt 0.375000 0.500000
vt 0.625000 0.500000
vt 0.375000 0.750000
vt 0.625000 0.750000
vt 0.375000 1.000000
vt 0.125000 0.750000
vt 0.125000 0.500000
vt 0.875000 0.500000
vt 0.625000 1.000000
vt 0.875000 0.750000
vn -0.9659 0.0000 -0.2588
vn 0.2588 0.0000 -0.9659
vn 0.9659 0.0000 0.2588
vn -0.2588 0.0000 0.9659
vn 0.0000 -1.0000 0.0000
vn 0.0000 1.0000 0.0000
usemtl cube2
s off
f 26/31/11 27/32/11 25/33/11
f 28/34/12 31/35/12 27/32/12
f 32/36/13 29/37/13 31/35/13
f 30/38/14 25/39/14 29/37/14
f 31/35/15 25/40/15 27/41/15
f 28/42/16 30/38/16 32/36/16
f 26/31/11 28/34/11 27/32/11
f 28/34/12 32/36/12 31/35/12
f 32/36/13 30/38/13 29/37/13
f 30/38/14 26/43/14 25/39/14
f 31/35/15 29/37/15 25/40/15
f 28/42/16 26/44/16 30/38/16
